<svg width="382" height="347" viewBox="0 0 382 347" fill="none" xmlns="http://www.w3.org/2000/svg">
<g clip-path="url(#clip0_636_18)">
<path d="M263.147 0.0400247C237.583 1.05684 215.681 18.1393 192.422 41.3904C174.928 58.8796 157.026 80.9105 139.735 105.45C130.852 106.06 122.24 106.873 113.9 107.958C108.136 90.6041 104.406 75.013 104.203 63.8958C104 54.1345 105.084 46.1355 106.644 41.3904C108.204 36.5775 109.492 35.764 110.035 35.4929C110.78 35.0862 111.459 34.8828 112.815 34.7472C120.613 34.1371 130.988 36.3063 145.16 48.1013L167.401 21.3931C147.94 5.25966 127.8 -1.18014 110.238 0.175608H110.17C104.813 0.582324 99.2529 2.00586 94.2351 4.51401C83.4535 10.0726 76.9438 20.3763 73.5534 30.68C70.2307 41.0515 69.2814 52.3042 69.4848 64.5737C69.8239 79.8937 73.4178 96.9084 78.7068 114.33C72.1972 115.889 65.6875 117.448 59.856 119.346C44.3277 124.227 30.9694 130.26 20.2556 138.462C9.60958 146.664 0.862239 158.324 0.0485319 172.695C-0.629548 185.71 5.8801 197.844 14.424 206.046C23.0357 214.181 33.7495 219.739 45.8195 224.484L58.432 192.082C48.9387 188.421 41.8866 184.151 38.2927 180.829C34.7667 177.44 34.6311 176.355 34.7667 174.457C34.8345 173.101 35.6482 170.458 41.412 165.984C47.2435 161.51 57.347 156.494 70.2985 152.426C76.4013 150.46 83.1822 148.766 90.37 147.207C93.557 155.002 96.9474 162.662 100.473 170.322C78.0288 216.621 68.9424 259.937 69.4848 290.103C69.8239 310.507 77.4185 329.216 93.0145 339.316C103.186 345.96 116.544 348.603 129.157 346.027C141.701 343.451 153.703 336.944 167.197 327.318L147.058 299.118C135.666 307.185 127.258 310.981 122.24 311.998C117.154 313.015 115.595 312.608 111.933 310.236C108.272 307.863 104.406 302.237 104.203 289.493C103.932 271.868 108.746 243.262 120.884 211.062C121.765 212.825 122.715 214.791 123.596 216.485C139.125 245.295 162.383 279.663 186.862 306.033C199.068 319.184 211.477 330.436 224.632 337.961C237.312 345.282 252.976 349.417 267.622 342.774C280.37 338.3 288.372 326.776 291.762 314.981C295.288 302.643 295.695 288.747 294.068 273.088C290.813 241.838 279.082 203.674 258.333 165.374L227.819 181.778C246.466 216.485 256.909 251.26 259.553 276.613C260.842 289.357 260.028 299.661 258.4 305.423C256.773 311.185 255.756 310.642 256.502 310.439L254.942 310.913L253.45 311.659C253.044 311.862 250.06 312.54 241.991 307.863C233.854 303.253 223.14 294.034 212.358 282.375C190.727 259.124 168.215 226.179 154.246 200.081C149.364 191.065 144.346 180.829 139.464 170.39C143.397 163.205 147.601 156.019 152.212 148.834C154.382 145.58 156.551 142.529 158.654 139.411C163.671 139.208 168.554 138.869 173.707 138.869C181.912 138.869 190.32 139.072 198.932 139.479C244.974 141.919 285.049 150.325 311.902 161.442C325.328 167.001 335.363 173.305 340.924 178.728C346.484 184.151 347.433 187.405 347.23 190.048C347.298 189.642 346.349 193.167 339.907 197.505C333.397 201.843 322.615 206.25 309.528 208.554L315.495 242.719C332.516 239.737 347.433 234.246 359.232 226.315C371.031 218.384 381.134 207.199 381.948 191.811C382.694 177.101 375.303 163.747 365.064 153.782C354.825 143.817 341.331 136.022 325.192 129.379C292.983 116.024 249.856 107.415 200.763 104.84C194.999 104.568 189.371 104.568 183.675 104.433C194.999 89.7229 206.323 76.5721 217.037 65.9295C237.651 45.2543 256.909 35.0862 264.503 34.7472C267.826 34.6794 269.385 35.2217 270.538 35.9674C273.522 37.9332 284.575 54.4056 268.301 80.5716L297.865 98.8742C321.259 61.0488 313.8 22.6811 289.457 6.88656C281.523 1.73471 272.166 -0.298909 263.147 0.0400247ZM190.998 156.222C181.437 156.222 173.639 164.018 173.639 173.576C173.639 183.134 181.437 190.93 190.998 190.93C200.559 190.93 208.357 183.134 208.357 173.576C208.357 164.018 200.559 156.222 190.998 156.222Z" fill="black"/>
</g>
<defs>
<clipPath id="clip0_636_18">
<rect width="382" height="347" fill="white"/>
</clipPath>
</defs>
</svg>
