<svg width="88" height="88" viewBox="0 0 88 88" fill="none" xmlns="http://www.w3.org/2000/svg">
<g clip-path="url(#clip0_396_43)">
<path d="M47.6666 28.71C50.7833 27.61 53.2766 25.1167 54.3766 22H65.9999L54.9999 47.6667C54.9999 53.7533 60.7566 58.6667 67.8333 58.6667C74.9099 58.6667 80.6666 53.7533 80.6666 47.6667L69.6666 22H76.9999V14.6667H54.3766C52.8733 10.3767 48.8033 7.33334 43.9999 7.33334C39.1966 7.33334 35.1266 10.3767 33.6233 14.6667H10.9999V22H18.3333L7.33325 47.6667C7.33325 53.7533 13.0899 58.6667 20.1666 58.6667C27.2433 58.6667 32.9999 53.7533 32.9999 47.6667L21.9999 22H33.6233C34.7233 25.1167 37.2166 27.61 40.3333 28.71V69.6667H7.33325V77H80.6666V69.6667H47.6666V28.71ZM74.6899 47.6667H60.9766L67.8333 31.68L74.6899 47.6667ZM27.0233 47.6667H13.3099L20.1666 31.68L27.0233 47.6667ZM43.9999 22C41.9833 22 40.3333 20.35 40.3333 18.3333C40.3333 16.3167 41.9833 14.6667 43.9999 14.6667C46.0166 14.6667 47.6666 16.3167 47.6666 18.3333C47.6666 20.35 46.0166 22 43.9999 22Z" fill="#374D55"/>
</g>
<defs>
<clipPath id="clip0_396_43">
<rect width="88" height="88" fill="white"/>
</clipPath>
</defs>
</svg>
