<svg width="40" height="34" viewBox="0 0 40 34" fill="none" xmlns="http://www.w3.org/2000/svg">
<path d="M35.7895 0H3.57895C1.61053 0 0 1.61053 0 3.57895V17.8947H3.57895V3.57895H35.7895V32.2105C37.7579 32.2105 39.3684 30.6 39.3684 28.6316V3.57895C39.3684 1.61053 37.7579 0 35.7895 0Z" fill="#1B046C"/>
<path d="M14.3161 19.6842C18.2693 19.6842 21.474 16.4795 21.474 12.5263C21.474 8.57312 18.2693 5.36842 14.3161 5.36842C10.3629 5.36842 7.1582 8.57312 7.1582 12.5263C7.1582 16.4795 10.3629 19.6842 14.3161 19.6842Z" fill="#1B046C"/>
<path d="M25.7505 24.2653C22.7442 22.7263 18.8432 21.4737 14.3158 21.4737C9.78842 21.4737 5.88737 22.7263 2.88105 24.2653C1.09158 25.1779 0 27.021 0 29.0253V34H28.6316V29.0253C28.6316 27.021 27.54 25.1779 25.7505 24.2653Z" fill="#1B046C"/>
</svg>
