<svg width="26" height="32" viewBox="0 0 26 32" fill="none" xmlns="http://www.w3.org/2000/svg">
<path d="M8.125 0H22.75C24.5375 0 26 1.44 26 3.2V28.8C26 30.56 24.5375 32 22.75 32H3.25C1.4625 32 0 30.56 0 28.8V8L8.125 0ZM22.75 28.8V3.2H9.75V9.6H3.25V28.8H22.75ZM6.5 12.8V20.8C6.5 24.336 9.40875 27.2 13 27.2C16.5913 27.2 19.5 24.336 19.5 20.8V10.4C19.5 8.048 17.4525 6.176 15.015 6.416C12.9025 6.624 11.375 8.528 11.375 10.624V20.8H14.625V10.4C14.625 9.952 14.9825 9.6 15.4375 9.6C15.8925 9.6 16.25 9.952 16.25 10.4V20.8C16.25 22.56 14.7875 24 13 24C11.2125 24 9.75 22.56 9.75 20.8V12.8H6.5Z" fill="#45469E"/>
</svg>
