<svg width="29" height="32" viewBox="0 0 29 32" fill="none" xmlns="http://www.w3.org/2000/svg">
<path d="M25.7778 3.2H19.0433C18.3667 1.344 16.5944 0 14.5 0C12.4056 0 10.6333 1.344 9.95667 3.2H3.22222C1.45 3.2 0 4.64 0 6.4V28.8C0 30.56 1.45 32 3.22222 32H25.7778C27.55 32 29 30.56 29 28.8V6.4C29 4.64 27.55 3.2 25.7778 3.2ZM14.5 3.2C15.3861 3.2 16.1111 3.92 16.1111 4.8C16.1111 5.68 15.3861 6.4 14.5 6.4C13.6139 6.4 12.8889 5.68 12.8889 4.8C12.8889 3.92 13.6139 3.2 14.5 3.2ZM17.7222 25.6H6.44444V22.4H17.7222V25.6ZM22.5556 19.2H6.44444V16H22.5556V19.2ZM22.5556 12.8H6.44444V9.6H22.5556V12.8Z" fill="#450203"/>
</svg>
