<svg width="28" height="28" viewBox="0 0 28 28" fill="none" xmlns="http://www.w3.org/2000/svg">
<g clip-path="url(#clip0_349_294)">
<path d="M24.8889 0H3.11111C1.4 0 0 1.4 0 3.11111V24.8889C0 26.6 1.4 28 3.11111 28H24.8889C26.6 28 28 26.6 28 24.8889V3.11111C28 1.4 26.6 0 24.8889 0ZM11.9311 8.04222L15.0422 11.1533L20.7511 5.44444L22.9444 7.63778L15.0422 15.5556L11.9311 12.4444L7.26444 17.1111L5.07111 14.9178L11.9311 8.04222ZM3.11111 20.2222H5.78667L3.11111 22.8978V20.2222ZM4.41778 24.8889L9.08444 20.2222H11.9311L7.26444 24.8889H4.41778ZM10.5778 24.8889L15.2444 20.2222H17.7644L13.0978 24.8889H10.5778ZM16.38 24.8889L21.0467 20.2222H23.5667L18.9 24.8889H16.38ZM24.8889 24.8889H22.1978L24.8889 22.1978V24.8889Z" fill="#450203"/>
</g>
<defs>
<clipPath id="clip0_349_294">
<rect width="28" height="28" fill="white"/>
</clipPath>
</defs>
</svg>
