<svg width="46" height="34" viewBox="0 0 46 34" fill="none" xmlns="http://www.w3.org/2000/svg">
<path d="M39.42 14.7156L36.4369 17.6375C36.0463 18.0271 35.558 18.2307 34.972 18.2484C34.386 18.2661 33.8799 18.0625 33.4538 17.6375C33.0631 17.2479 32.8678 16.7521 32.8678 16.15C32.8678 15.5479 33.0631 15.0521 33.4538 14.6625L36.3836 11.6875L33.4538 8.76562C33.0631 8.37604 32.8678 7.88906 32.8678 7.30469C32.8678 6.72031 33.0631 6.21563 33.4538 5.79063C33.8799 5.36563 34.386 5.15312 34.972 5.15312C35.558 5.15312 36.064 5.36563 36.4902 5.79063L39.42 8.7125L42.3499 5.7375C42.7406 5.3125 43.2289 5.1 43.8149 5.1C44.4008 5.1 44.9069 5.3125 45.3331 5.7375C45.7592 6.1625 45.9723 6.66719 45.9723 7.25156C45.9723 7.83594 45.7592 8.34063 45.3331 8.76562L42.4032 11.6875L45.3863 14.6625C45.8125 15.0875 46.0167 15.5833 45.9989 16.15C45.9812 16.7167 45.7592 17.2125 45.3331 17.6375C44.9069 18.0271 44.4097 18.2307 43.8415 18.2484C43.2733 18.2661 42.7761 18.0625 42.3499 17.6375L39.42 14.7156ZM17.0465 17C14.7026 17 12.6961 16.1677 11.027 14.5031C9.35782 12.8385 8.52325 10.8375 8.52325 8.5C8.52325 6.1625 9.35782 4.16146 11.027 2.49688C12.6961 0.832292 14.7026 0 17.0465 0C19.3904 0 21.3969 0.832292 23.0661 2.49688C24.7352 4.16146 25.5698 6.1625 25.5698 8.5C25.5698 10.8375 24.7352 12.8385 23.0661 14.5031C21.3969 16.1677 19.3904 17 17.0465 17ZM0 29.75V28.05C0 26.8458 0.310744 25.7391 0.932231 24.7297C1.55372 23.7203 2.37941 22.95 3.4093 22.4188C5.61114 21.3208 7.8485 20.4974 10.1214 19.9484C12.3942 19.3995 14.7026 19.125 17.0465 19.125C19.3904 19.125 21.6988 19.3995 23.9717 19.9484C26.2445 20.4974 28.4819 21.3208 30.6837 22.4188C31.7136 22.95 32.5393 23.7203 33.1608 24.7297C33.7823 25.7391 34.093 26.8458 34.093 28.05V29.75C34.093 30.9188 33.6757 31.9193 32.8412 32.7516C32.0066 33.5839 31.0033 34 29.8314 34H4.26163C3.08968 34 2.08642 33.5839 1.25185 32.7516C0.417285 31.9193 0 30.9188 0 29.75Z" fill="#1B046C"/>
</svg>
