<svg width="250" height="236" viewBox="0 0 250 236" fill="none" xmlns="http://www.w3.org/2000/svg">
<path d="M88.0205 141.477C88.0205 112.165 98.9104 87.2504 120.69 66.7321C142.47 46.2139 168.916 35.9547 200.03 35.9547V59.4042C175.762 59.4042 155.177 67.3652 138.276 83.2874C121.366 99.2174 112.912 118.614 112.912 141.477H88.0205ZM137.803 141.477C137.803 125.258 143.872 111.431 156.01 99.9951C168.141 88.5675 182.814 82.8536 200.03 82.8536V106.303C189.659 106.303 180.843 109.723 173.584 116.562C166.324 123.402 162.694 131.707 162.694 141.477H137.803ZM38.2384 47.6795C31.3933 47.6795 25.5315 45.3814 20.6529 40.7853C15.7825 36.197 13.3473 30.6786 13.3473 24.23C13.3473 17.7814 15.7825 12.2591 20.6529 7.66299C25.5315 3.07471 31.3933 0.780579 38.2384 0.780579C45.0834 0.780579 50.9411 3.07471 55.8115 7.66299C60.6901 12.2591 63.1294 17.7814 63.1294 24.23C63.1294 30.6786 60.6901 36.197 55.8115 40.7853C50.9411 45.3814 45.0834 47.6795 38.2384 47.6795ZM0.901794 106.303V76.9912C0.901794 72.1059 2.71884 67.9554 6.35294 64.5396C9.97873 61.116 14.3845 59.4042 19.5701 59.4042H56.9067C66.2408 59.4042 74.2806 56.6176 81.0261 51.0444C87.7633 45.4791 91.9616 38.4951 93.621 30.0924H118.512C117.268 41.8171 112.704 52.1739 104.822 61.1629C96.9398 70.1518 87.1908 76.405 75.575 79.9224V106.303H0.901794ZM212.476 176.651C205.631 176.651 199.769 174.357 194.89 169.769C190.02 165.173 187.585 159.651 187.585 153.202C187.585 146.753 190.02 141.231 194.89 136.635C199.769 132.047 205.631 129.752 212.476 129.752C219.321 129.752 225.183 132.047 230.061 136.635C234.932 141.231 237.367 146.753 237.367 153.202C237.367 159.651 234.932 165.173 230.061 169.769C225.183 174.357 219.321 176.651 212.476 176.651ZM175.139 235.275V208.894C163.523 205.377 153.774 199.124 145.892 190.135C138.01 181.146 133.447 170.789 132.202 159.064H157.093C158.753 167.467 162.951 174.455 169.688 180.028C176.434 185.593 184.473 188.376 193.808 188.376H231.144C236.33 188.376 240.735 190.088 244.361 193.511C247.995 196.927 249.812 201.078 249.812 205.963V235.275H175.139Z" fill="#473755"/>
</svg>
