<svg width="87" height="124" viewBox="0 0 87 124" fill="none" xmlns="http://www.w3.org/2000/svg">
<g clip-path="url(#clip0_490_18)">
<path d="M80.7857 37.2C80.7857 16.678 64.0693 0 43.5 0C22.9307 0 6.21429 16.678 6.21429 37.2C6.21429 65.1 43.5 105.4 43.5 105.4C43.5 105.4 80.7857 65.1 80.7857 37.2ZM31.0714 37.2C31.0714 30.38 36.6643 24.8 43.5 24.8C50.3357 24.8 55.9286 30.38 55.9286 37.2C55.9286 44.02 50.3979 49.6 43.5 49.6C36.6643 49.6 31.0714 44.02 31.0714 37.2ZM0 111.6V124H87V111.6H0Z" fill="#473755"/>
</g>
<defs>
<clipPath id="clip0_490_18">
<rect width="87" height="124" fill="white"/>
</clipPath>
</defs>
</svg>
