<svg width="33" height="33" viewBox="0 0 33 33" fill="none" xmlns="http://www.w3.org/2000/svg">
<g clip-path="url(#clip0_148_54)">
<path d="M16.5 2.75C21.8212 2.75 26.125 7.05375 26.125 12.375C26.125 19.5938 16.5 30.25 16.5 30.25C16.5 30.25 6.875 19.5938 6.875 12.375C6.875 7.05375 11.1788 2.75 16.5 2.75ZM16.5 15.8125C18.3975 15.8125 19.9375 14.2725 19.9375 12.375C19.9375 10.4775 18.3975 8.9375 16.5 8.9375C14.6025 8.9375 13.0625 10.4775 13.0625 12.375C13.0625 14.2725 14.6025 15.8125 16.5 15.8125Z" fill="#473755"/>
</g>
<defs>
<clipPath id="clip0_148_54">
<rect width="33" height="33" fill="white" transform="matrix(-1 0 0 1 33 0)"/>
</clipPath>
</defs>
</svg>
