<svg width="20" height="27" viewBox="0 0 20 27" fill="none" xmlns="http://www.w3.org/2000/svg">
<path d="M10 0C5.84524 0 2.5 3.34524 2.5 7.5V8.75C1.125 8.75 0 9.875 0 11.25V23.75C0 25.125 1.125 26.25 2.5 26.25H17.5C18.875 26.25 20 25.125 20 23.75V11.25C20 9.875 18.875 8.75 17.5 8.75V7.5C17.5 3.34524 14.1548 0 10 0ZM10 2.5C12.8452 2.5 15 4.65476 15 7.5V8.75H5V7.5C5 4.65476 7.15476 2.5 10 2.5ZM10 15C11.375 15 12.5 16.125 12.5 17.5C12.5 18.875 11.375 20 10 20C8.625 20 7.5 18.875 7.5 17.5C7.5 16.125 8.625 15 10 15Z" fill="#473755"/>
</svg>
