<svg width="33" height="33" viewBox="0 0 33 33" fill="none" xmlns="http://www.w3.org/2000/svg">
<path d="M3.44564 25.7608C4.80564 24.7208 9.54 22.7997 11.22 22.1992C12.9 21.5997 14.66 21.3 16.5 21.3C18.34 21.3 20.1 21.5997 21.78 22.1992C23.46 22.7997 27.1608 26.0323 28.5208 27.0723C29.4541 25.9789 30.4524 24.7474 30.973 23.3607C31.4924 21.9741 34 18 30.85 9.41883C29.5 7 29.5 7 27 4.41609C24.5061 1.92329 20.0467 0.5 16.5 0.5C12.9533 0.5 8.29112 2.10115 5.79832 4.59395C0.5 10.5 0.874491 13 0.5 16.5C0.5 18.0733 0.702833 19.9133 1.22337 21.2999C1.74283 22.6866 2.5123 24.6675 3.44564 25.7608ZM16.5 18.1C14.9267 18.1 13.5997 17.5603 12.5192 16.4808C11.4397 15.4003 10.9 14.0733 10.9 12.5C10.9 10.9267 11.4397 9.59973 12.5192 8.5192C13.5997 7.43973 14.9267 6.9 16.5 6.9C18.0733 6.9 19.4003 7.43973 20.4808 8.5192C21.5603 9.59973 22.1 10.9267 22.1 12.5C22.1 14.0733 21.5603 15.4003 20.4808 16.4808C19.4003 17.5603 18.0733 18.1 16.5 18.1ZM16.5 32.5C14.2867 32.5 12.2067 32.0797 10.26 31.2392C8.31333 30.3997 6.62 29.26 5.18 27.82C3.74 26.38 2.60027 24.6867 1.7608 22.74C0.920266 20.7933 0.5 18.7133 0.5 16.5C0.5 14.2867 0.920266 12.2067 1.7608 10.26C2.60027 8.31333 4.67066 5.73641 6.11066 4.29641C7.55066 2.85641 9.5 2.13088 10.26 1.7592C12.3325 1.10482 14.2867 0.5 16.5 0.5C18.7133 0.5 20.7933 0.919733 22.74 1.7592C24.6867 2.59973 26.38 3.74 27.82 5.18C29.26 6.62 30.3393 8.41197 31.1788 10.3586C32.0193 12.3053 32.3542 15.8279 32.5 16.5C32.5 18.7133 31.8135 21.4141 30.973 23.3607C30.1335 25.3074 29.26 26.38 27.82 27.82C26.38 29.26 24.6867 30.3997 22.74 31.2392C20.7933 32.0797 18.7133 32.5 16.5 32.5Z" fill="#5E5E5E"/>
</svg>
