<svg width="192" height="192" viewBox="0 0 192 192" fill="none" xmlns="http://www.w3.org/2000/svg">
<g clip-path="url(#clip0_425_125)">
<path d="M168 64V56L144 72L120 56V64L144 80L168 64ZM176 24H16C7.2 24 0 31.2 0 40V152C0 160.8 7.2 168 16 168H176C184.8 168 191.92 160.8 191.92 152L192 40C192 31.2 184.8 24 176 24ZM64 48C77.28 48 88 58.72 88 72C88 85.28 77.28 96 64 96C50.72 96 40 85.28 40 72C40 58.72 50.72 48 64 48ZM112 144H16V136C16 120 48 111.2 64 111.2C80 111.2 112 120 112 136V144ZM176 96H112V48H176V96Z" fill="#51402F"/>
</g>
<defs>
<clipPath id="clip0_425_125">
<rect width="192" height="192" fill="white"/>
</clipPath>
</defs>
</svg>
