<svg width="133" height="133" viewBox="0 0 133 133" fill="none" xmlns="http://www.w3.org/2000/svg">
<path d="M114.589 56.1667C113.897 56.1667 113.334 55.9721 112.902 55.5828C112.469 55.1971 112.166 54.7028 111.993 54.1L111.345 50.7417C110.566 50.4833 109.853 50.1596 109.206 49.7703C108.556 49.3846 107.971 48.9333 107.452 48.4167L103.949 49.5792C103.43 49.7514 102.89 49.729 102.33 49.512C101.766 49.2984 101.311 48.9333 100.965 48.4167L99.4076 45.8333C99.0616 45.3167 98.9544 44.7569 99.0859 44.1542C99.2139 43.5514 99.4941 43.0347 99.9266 42.6042L102.781 40.15C102.608 39.7194 102.522 39.375 102.522 39.1167V37.05C102.522 36.7917 102.608 36.4472 102.781 36.0167L99.9266 33.5625C99.4941 33.1319 99.2139 32.6153 99.0859 32.0125C98.9544 31.4097 99.0616 30.85 99.4076 30.3333L100.965 27.75C101.311 27.2333 101.766 26.8665 102.33 26.6495C102.89 26.4359 103.43 26.4153 103.949 26.5875L107.452 27.75C107.971 27.2333 108.556 26.7804 109.206 26.3912C109.853 26.0054 110.566 25.6833 111.345 25.425L111.993 22.0667C112.166 21.4639 112.469 20.9679 112.902 20.5787C113.334 20.1929 113.897 20 114.589 20H117.443C118.135 20 118.697 20.1929 119.13 20.5787C119.562 20.9679 119.865 21.4639 120.038 22.0667L120.687 25.425C121.465 25.6833 122.18 26.0054 122.83 26.3912C123.477 26.7804 124.06 27.2333 124.579 27.75L128.083 26.5875C128.602 26.4153 129.143 26.4359 129.707 26.6495C130.268 26.8665 130.721 27.2333 131.067 27.75L132.624 30.3333C132.97 30.85 133.077 31.4097 132.946 32.0125C132.818 32.6153 132.537 33.1319 132.105 33.5625L129.25 36.0167C129.423 36.4472 129.51 36.7917 129.51 37.05V39.1167C129.51 39.375 129.423 39.7194 129.25 40.15L132.105 42.6042C132.537 43.0347 132.818 43.5514 132.946 44.1542C133.077 44.7569 132.97 45.3167 132.624 45.8333L131.067 48.4167C130.721 48.9333 130.268 49.2984 129.707 49.512C129.143 49.729 128.602 49.7514 128.083 49.5792L124.579 48.4167C124.06 48.9333 123.477 49.3846 122.83 49.7703C122.18 50.1596 121.465 50.4833 120.687 50.7417L120.038 54.1C119.865 54.7028 119.562 55.1971 119.13 55.5828C118.697 55.9721 118.135 56.1667 117.443 56.1667H114.589ZM116.016 44.5417C117.832 44.5417 119.369 43.9165 120.625 42.6662C121.877 41.4193 122.503 39.8917 122.503 38.0833C122.503 36.275 121.877 34.7457 120.625 33.4953C119.369 32.2484 117.832 31.625 116.016 31.625C114.199 31.625 112.665 32.2484 111.412 33.4953C110.156 34.7457 109.528 36.275 109.528 38.0833C109.528 39.8917 110.156 41.4193 111.412 42.6662C112.665 43.9165 114.199 44.5417 116.016 44.5417ZM101.484 82C101.311 82 100.878 81.6556 100.186 80.9667L99.6671 78.125C99.1481 77.9528 98.6516 77.7582 98.1776 77.5412C97.7001 77.3276 97.2451 77.0056 96.8126 76.575L94.2176 77.4792C94.0446 77.5653 93.5256 77.3931 92.6606 76.9625L91.1036 74.1208L91.3631 72.5708L93.4391 70.6333V67.5333L91.3631 65.5958C91.1901 65.4236 91.1036 64.9069 91.1036 64.0458L92.6606 61.2042C92.6606 61.1181 93.1796 60.9458 94.2176 60.6875L96.8126 61.5917C97.1586 61.2472 97.5911 60.9458 98.1101 60.6875C98.6291 60.4292 99.1481 60.2139 99.6671 60.0417L100.186 57.2C100.186 57.0278 100.619 56.6833 101.484 56.1667H104.598C104.771 56.1667 105.203 56.5111 105.895 57.2L106.414 60.0417C106.933 60.2139 107.452 60.4292 107.971 60.6875C108.49 60.9458 108.923 61.2472 109.269 61.5917L111.864 60.6875C112.037 60.6014 112.556 60.7736 113.421 61.2042L114.978 64.0458L114.718 65.5958L112.642 67.5333V70.6333L114.718 72.5708C114.891 72.7431 114.978 73.2597 114.978 74.1208L113.421 76.9625C113.421 77.0486 112.902 77.2208 111.864 77.4792L109.269 76.575C108.836 77.0056 108.383 77.3276 107.909 77.5412C107.431 77.7582 106.933 77.9528 106.414 78.125L105.895 80.9667C105.895 81.1389 105.463 81.4833 104.598 82H101.484ZM103.041 72.9583C104.079 72.9583 104.987 72.5708 105.765 71.7958C106.544 71.0208 106.933 70.1167 106.933 69.0833C106.933 68.05 106.544 67.1458 105.765 66.3708C104.987 65.5958 104.079 65.2083 103.041 65.2083C102.003 65.2083 101.094 65.5958 100.316 66.3708C99.5374 67.1458 99.1481 68.05 99.1481 69.0833C99.1481 70.1167 99.5374 71.0208 100.316 71.7958C101.094 72.5708 102.003 72.9583 103.041 72.9583ZM61.5203 71.6667C55.8113 71.6667 50.924 69.6431 46.8585 65.5958C42.7929 61.5486 40.7602 56.6833 40.7602 51H39.4627C38.6842 51 38.0579 50.7641 37.5839 50.2922C37.1064 49.8168 36.8676 49.1917 36.8676 48.4167C36.8676 47.6417 37.1064 47.0165 37.5839 46.5412C38.0579 46.0693 38.6842 45.8333 39.4627 45.8333H40.7602C40.7602 41.9583 41.7117 38.4708 43.6147 35.3708C45.5177 32.2708 48.0262 29.8167 51.1402 28.0083V32.9167C51.1402 33.6917 51.379 34.3151 51.8565 34.787C52.3305 35.2623 52.9568 35.5 53.7353 35.5C54.5138 35.5 55.1418 35.2623 55.6193 34.787C56.0933 34.3151 56.3303 33.6917 56.3303 32.9167V25.9417C57.1088 25.6833 57.9306 25.4887 58.7956 25.3578C59.6606 25.2304 60.5688 25.1667 61.5203 25.1667C62.4718 25.1667 63.3801 25.2304 64.2451 25.3578C65.1101 25.4887 65.9319 25.6833 66.7104 25.9417V32.9167C66.7104 33.6917 66.9491 34.3151 67.4266 34.787C67.9006 35.2623 68.5269 35.5 69.3054 35.5C70.0839 35.5 70.7119 35.2623 71.1894 34.787C71.6634 34.3151 71.9004 33.6917 71.9004 32.9167V28.0083C75.0144 29.8167 77.523 32.2708 79.426 35.3708C81.329 38.4708 82.2805 41.9583 82.2805 45.8333H83.578C84.3565 45.8333 84.9845 46.0693 85.462 46.5412C85.936 47.0165 86.173 47.6417 86.173 48.4167C86.173 49.1917 85.936 49.8168 85.462 50.2922C84.9845 50.7641 84.3565 51 83.578 51H82.2805C82.2805 56.6833 80.2477 61.5486 76.1822 65.5958C72.1167 69.6431 67.2294 71.6667 61.5203 71.6667ZM61.5203 61.3333C64.3749 61.3333 66.8194 60.3207 68.8539 58.2953C70.8849 56.2734 71.9004 53.8417 71.9004 51H51.1402C51.1402 53.8417 52.1575 56.2734 54.192 58.2953C56.223 60.3207 58.6658 61.3333 61.5203 61.3333ZM20 113V98.5333C20 95.6917 20.7353 93.0222 22.2058 90.525C23.6763 88.0278 25.709 86.1333 28.3041 84.8417C32.7156 82.6028 37.6894 80.7083 43.2254 79.1583C48.7615 77.6083 54.8598 76.8333 61.5203 76.8333C68.1809 76.8333 74.2792 77.6083 79.8152 79.1583C85.3513 80.7083 90.3251 82.6028 94.7366 84.8417C97.3316 86.1333 99.3644 88.0278 100.835 90.525C102.305 93.0222 103.041 95.6917 103.041 98.5333V113H20Z" fill="#273D2A"/>
</svg>
