<svg width="28" height="19" viewBox="0 0 28 19" fill="none" xmlns="http://www.w3.org/2000/svg">
<path d="M1.55556 19C1.11481 19 0.74563 18.848 0.448 18.544C0.149333 18.2411 0 17.8653 0 17.4167C0 16.9681 0.149333 16.5923 0.448 16.2893C0.74563 15.9853 1.11481 15.8333 1.55556 15.8333H26.4444C26.8852 15.8333 27.2544 15.9853 27.552 16.2893C27.8507 16.5923 28 16.9681 28 17.4167C28 17.8653 27.8507 18.2411 27.552 18.544C27.2544 18.848 26.8852 19 26.4444 19H1.55556ZM1.55556 11.0833C1.11481 11.0833 0.74563 10.9313 0.448 10.6273C0.149333 10.3244 0 9.94861 0 9.5C0 9.05139 0.149333 8.67508 0.448 8.37108C0.74563 8.06814 1.11481 7.91667 1.55556 7.91667H26.4444C26.8852 7.91667 27.2544 8.06814 27.552 8.37108C27.8507 8.67508 28 9.05139 28 9.5C28 9.94861 27.8507 10.3244 27.552 10.6273C27.2544 10.9313 26.8852 11.0833 26.4444 11.0833H1.55556ZM1.55556 3.16667C1.11481 3.16667 0.74563 3.01519 0.448 2.71225C0.149333 2.40825 0 2.03194 0 1.58333C0 1.13472 0.149333 0.758417 0.448 0.454417C0.74563 0.151473 1.11481 0 1.55556 0H26.4444C26.8852 0 27.2544 0.151473 27.552 0.454417C27.8507 0.758417 28 1.13472 28 1.58333C28 2.03194 27.8507 2.40825 27.552 2.71225C27.2544 3.01519 26.8852 3.16667 26.4444 3.16667H1.55556Z" fill="white"/>
</svg>
