<svg width="38" height="28" viewBox="0 0 38 28" fill="none" xmlns="http://www.w3.org/2000/svg">
<path d="M22.4545 15.75C23.8939 15.75 25.1174 15.2396 26.125 14.2188C27.1326 13.1979 27.6364 11.9583 27.6364 10.5C27.6364 9.04167 27.1326 7.80208 26.125 6.78125C25.1174 5.76042 23.8939 5.25 22.4545 5.25C21.0152 5.25 19.7917 5.76042 18.7841 6.78125C17.7765 7.80208 17.2727 9.04167 17.2727 10.5C17.2727 11.9583 17.7765 13.1979 18.7841 14.2188C19.7917 15.2396 21.0152 15.75 22.4545 15.75ZM10.3636 21C9.41364 21 8.60067 20.657 7.92473 19.971C7.24764 19.2862 6.90909 18.4625 6.90909 17.5V3.5C6.90909 2.5375 7.24764 1.71383 7.92473 1.029C8.60067 0.343 9.41364 0 10.3636 0H34.5455C35.4955 0 36.309 0.343 36.9861 1.029C37.662 1.71383 38 2.5375 38 3.5V17.5C38 18.4625 37.662 19.2862 36.9861 19.971C36.309 20.657 35.4955 21 34.5455 21H10.3636ZM3.45455 28C2.50455 28 1.69158 27.6576 1.01564 26.9728C0.338546 26.2868 0 25.4625 0 24.5V7C0 6.50417 0.165818 6.08825 0.497455 5.75225C0.827939 5.41742 1.23788 5.25 1.72727 5.25C2.21667 5.25 2.62718 5.41742 2.95882 5.75225C3.2893 6.08825 3.45455 6.50417 3.45455 7V24.5H31.0909C31.5803 24.5 31.9902 24.668 32.3207 25.004C32.6524 25.3388 32.8182 25.7542 32.8182 26.25C32.8182 26.7458 32.6524 27.1612 32.3207 27.496C31.9902 27.832 31.5803 28 31.0909 28H3.45455ZM10.3636 7C11.3136 7 12.1266 6.657 12.8025 5.971C13.4796 5.28617 13.8182 4.4625 13.8182 3.5H10.3636V7ZM34.5455 7V3.5H31.0909C31.0909 4.4625 31.4289 5.28617 32.1048 5.971C32.7819 6.657 33.5955 7 34.5455 7ZM10.3636 17.5H13.8182C13.8182 16.5375 13.4796 15.7132 12.8025 15.0272C12.1266 14.3424 11.3136 14 10.3636 14V17.5ZM31.0909 17.5H34.5455V14C33.5955 14 32.7819 14.3424 32.1048 15.0272C31.4289 15.7132 31.0909 16.5375 31.0909 17.5Z" fill="#00A303"/>
</svg>
