<svg width="34" height="34" viewBox="0 0 34 34" fill="none" xmlns="http://www.w3.org/2000/svg">
<path d="M17 0C7.616 0 0 7.616 0 17C0 26.384 7.616 34 17 34C26.384 34 34 26.384 34 17C34 7.616 26.384 0 17 0ZM18.496 26.792V28.9H15.521V26.707C14.263 26.401 11.458 25.398 10.387 21.675L13.192 20.536C13.294 20.91 14.178 24.089 17.272 24.089C18.853 24.089 20.638 23.273 20.638 21.352C20.638 19.72 19.448 18.87 16.762 17.901C14.892 17.238 11.067 16.15 11.067 12.274C11.067 12.104 11.084 8.194 15.521 7.242V5.1H18.496V7.208C21.624 7.752 22.763 10.251 23.018 10.999L20.332 12.138C20.145 11.543 19.329 9.86 17.102 9.86C15.912 9.86 14.025 10.489 14.025 12.223C14.025 13.838 15.487 14.45 18.513 15.453C22.593 16.864 23.63 18.938 23.63 21.318C23.63 25.789 19.38 26.639 18.496 26.792Z" fill="#1B046C"/>
</svg>
