<svg width="36" height="34" viewBox="0 0 36 34" fill="none" xmlns="http://www.w3.org/2000/svg">
<path d="M17.9167 0C8.02667 0 0 7.616 0 17C0 26.384 8.02667 34 17.9167 34C27.8067 34 35.8333 26.384 35.8333 17C35.8333 7.616 27.8067 0 17.9167 0ZM19.4933 26.792V28.9H16.3579V26.707C15.0321 26.401 12.0758 25.398 10.9471 21.675L13.9033 20.536C14.0108 20.91 14.9425 24.089 18.2033 24.089C19.8696 24.089 21.7508 23.273 21.7508 21.352C21.7508 19.72 20.4967 18.87 17.6658 17.901C15.695 17.238 11.6638 16.15 11.6638 12.274C11.6638 12.104 11.6817 8.194 16.3579 7.242V5.1H19.4933V7.208C22.79 7.752 23.9904 10.251 24.2592 10.999L21.4283 12.138C21.2312 11.543 20.3713 9.86 18.0242 9.86C16.77 9.86 14.7812 10.489 14.7812 12.223C14.7812 13.838 16.3221 14.45 19.5113 15.453C23.8113 16.864 24.9042 18.938 24.9042 21.318C24.9042 25.789 20.425 26.639 19.4933 26.792Z" fill="#453664"/>
</svg>
