<svg width="192" height="125" viewBox="0 0 192 125" fill="none" xmlns="http://www.w3.org/2000/svg">
<path d="M176 0H16C7.2 0 0 7.2 0 16V128C0 136.8 7.2 144 16 144H176C184.8 144 191.92 136.8 191.92 128L192 16C192 7.2 184.8 0 176 0ZM64 24C77.28 24 88 34.72 88 48C88 61.28 77.28 72 64 72C50.72 72 40 61.28 40 48C40 34.72 50.72 24 64 24ZM112 120H16V112C16 96 48 87.2 64 87.2C80 87.2 112 96 112 112V120ZM142.8 88H155.92L168 104L152.08 119.92C141.6 112.08 133.84 100.88 130.24 88C128.8 82.88 128 77.52 128 72C128 66.48 128.8 61.12 130.24 56C133.84 43.04 141.6 31.92 152.08 24.08L168 40L155.92 56H142.8C141.04 61.04 140 66.4 140 72C140 77.6 141.04 82.96 142.8 88Z" fill="#51402F"/>
</svg>
