<svg width="33" height="33" viewBox="0 0 33 33" fill="none" xmlns="http://www.w3.org/2000/svg">
<g clip-path="url(#clip0_420_88)">
<path d="M23.8975 14.8363L20.8725 11.8113C20.4875 11.4263 20.3775 10.89 20.5288 10.4088C21.0375 8.86875 21.3125 7.21875 21.3125 5.5C21.3125 4.74375 21.9312 4.125 22.6875 4.125H27.5C28.2563 4.125 28.875 4.74375 28.875 5.5C28.875 18.4113 18.4113 28.875 5.5 28.875C4.74375 28.875 4.125 28.2563 4.125 27.5V22.7013C4.125 21.945 4.74375 21.3263 5.5 21.3263C7.205 21.3263 8.86875 21.0513 10.4088 20.5425C10.89 20.3775 11.44 20.5013 11.8113 20.8725L14.8363 23.8975C18.7275 21.9037 21.9175 18.7275 23.8975 14.8363Z" fill="#00789C"/>
</g>
<defs>
<clipPath id="clip0_420_88">
<rect width="33" height="33" fill="white"/>
</clipPath>
</defs>
</svg>
