<svg width="192" height="192" viewBox="0 0 192 192" fill="none" xmlns="http://www.w3.org/2000/svg">
<g clip-path="url(#clip0_490_22)">
<path d="M176 24H16C7.2 24 0 31.2 0 40V152C0 160.8 7.2 168 16 168H176C184.8 168 191.92 160.8 191.92 152L192 40C192 31.2 184.8 24 176 24ZM64 48C77.28 48 88 58.72 88 72C88 85.28 77.28 96 64 96C50.72 96 40 85.28 40 72C40 58.72 50.72 48 64 48ZM112 144H16V136C16 120 48 111.2 64 111.2C80 111.2 112 120 112 136V144ZM142.8 112H155.92L168 128L152.08 143.92C141.6 136.08 133.84 124.88 130.24 112C128.8 106.88 128 101.52 128 96C128 90.48 128.8 85.12 130.24 80C133.84 67.04 141.6 55.92 152.08 48.08L168 64L155.92 80H142.8C141.04 85.04 140 90.4 140 96C140 101.6 141.04 106.96 142.8 112Z" fill="#473755"/>
</g>
<defs>
<clipPath id="clip0_490_22">
<rect width="192" height="192" fill="white"/>
</clipPath>
</defs>
</svg>
