<svg width="88" height="88" viewBox="0 0 88 88" fill="none" xmlns="http://www.w3.org/2000/svg">
<g clip-path="url(#clip0_396_51)">
<path d="M73.3333 14.6667H14.6666C10.5966 14.6667 7.36992 17.93 7.36992 22L7.33325 66C7.33325 70.07 10.5966 73.3333 14.6666 73.3333H73.3333C77.4033 73.3333 80.6666 70.07 80.6666 66V22C80.6666 17.93 77.4033 14.6667 73.3333 14.6667ZM43.9999 36.6667H29.3333V40.3333H40.3333C42.3499 40.3333 43.9999 41.9833 43.9999 44V55C43.9999 57.0167 42.3499 58.6667 40.3333 58.6667H36.6666V62.3333H29.3333V58.6667H21.9999V51.3333H36.6666V47.6667H25.6666C23.6499 47.6667 21.9999 46.0167 21.9999 44V33C21.9999 30.9833 23.6499 29.3333 25.6666 29.3333H29.3333V25.6667H36.6666V29.3333H43.9999V36.6667ZM58.6666 59.5833L51.3333 52.25H65.9999L58.6666 59.5833ZM51.3333 36.6667L58.6666 29.3333L65.9999 36.6667H51.3333Z" fill="#374D55"/>
</g>
<defs>
<clipPath id="clip0_396_51">
<rect width="88" height="88" fill="white"/>
</clipPath>
</defs>
</svg>
