<svg width="192" height="192" viewBox="0 0 192 192" fill="none" xmlns="http://www.w3.org/2000/svg">
<g clip-path="url(#clip0_390_9)">
<path d="M73.52 50.8C57.2 69.12 46 95.44 44.96 97.92L16 85.52L48.4 53.12C52.16 49.36 57.6 47.68 62.88 48.72L73.52 50.8ZM89.36 136C89.36 136 119.28 123.6 136.48 106.4C179.68 63.2 172.48 29.44 170.16 21.84C162.56 19.44 128.8 12.32 85.6 55.52C68.4 72.72 56 102.64 56 102.64L89.36 136ZM141.2 118.48C122.88 134.8 96.56 146 94.08 147.04L106.48 176L138.88 143.6C142.64 139.84 144.32 134.4 143.28 129.12L141.2 118.48ZM72 144C72 150.64 69.28 156.64 64.96 160.96C55.52 170.4 16 176 16 176C16 176 21.6 136.48 31.04 127.04C35.36 122.72 41.36 120 48 120C61.28 120 72 130.72 72 144ZM104 72C104 63.2 111.2 56 120 56C128.8 56 136 63.2 136 72C136 80.8 128.8 88 120 88C111.2 88 104 80.8 104 72Z" fill="#374D55"/>
</g>
<defs>
<clipPath id="clip0_390_9">
<rect width="192" height="192" fill="white"/>
</clipPath>
</defs>
</svg>
