<svg width="100" height="104" viewBox="0 0 100 104" fill="none" xmlns="http://www.w3.org/2000/svg">
<path d="M18.1818 72.0351C16.8939 72.0351 15.8136 71.5967 14.9409 70.72C14.0712 69.8463 13.6364 68.7625 13.6364 67.4687V44.6367C13.6364 43.3428 14.0712 42.2576 14.9409 41.3808C15.8136 40.5071 16.8939 40.0703 18.1818 40.0703C19.4697 40.0703 20.55 40.5071 21.4227 41.3808C22.2924 42.2576 22.7273 43.3428 22.7273 44.6367V67.4687C22.7273 68.7625 22.2924 69.8463 21.4227 70.72C20.55 71.5967 19.4697 72.0351 18.1818 72.0351ZM45.4545 72.0351C44.1667 72.0351 43.0879 71.5967 42.2182 70.72C41.3455 69.8463 40.9091 68.7625 40.9091 67.4687V44.6367C40.9091 43.3428 41.3455 42.2576 42.2182 41.3808C43.0879 40.5071 44.1667 40.0703 45.4545 40.0703C46.7424 40.0703 47.8227 40.5071 48.6955 41.3808C49.5652 42.2576 50 43.3428 50 44.6367V67.4687C50 68.7625 49.5652 69.8463 48.6955 70.72C47.8227 71.5967 46.7424 72.0351 45.4545 72.0351ZM5.45455 30.9374C3.93939 30.9374 2.65151 30.4047 1.59091 29.3392C0.530303 28.2737 0 26.9799 0 25.4577C0 24.3161 0.265151 23.2887 0.795454 22.3754C1.32576 21.4621 2.12121 20.7391 3.18182 20.2064L41.3636 1.02744C41.9697 0.646908 42.6333 0.380534 43.3545 0.22832C44.0727 0.0761066 44.7727 0 45.4545 0C46.1364 0 46.8379 0.0761066 47.5591 0.22832C48.2773 0.380534 48.9394 0.646908 49.5455 1.02744L87.7273 20.2064C88.7879 20.7391 89.5833 21.4621 90.1136 22.3754C90.6439 23.2887 90.9091 24.3161 90.9091 25.4577C90.9091 26.9799 90.3788 28.2737 89.3182 29.3392C88.2576 30.4047 86.9697 30.9374 85.4545 30.9374H5.45455ZM4.54545 90.3008C3.25758 90.3008 2.17879 89.8624 1.30909 88.9856C0.436364 88.1119 0 87.0282 0 85.7344C0 84.4405 0.436364 83.3568 1.30909 82.4831C2.17879 81.6063 3.25758 81.1679 4.54545 81.1679H54.7727C54.9242 82.7662 55.1136 84.3066 55.3409 85.7891C55.5682 87.2748 55.9091 88.7786 56.3636 90.3008H4.54545ZM68.1818 54.9111V44.6367C68.1818 43.3428 68.6182 42.2576 69.4909 41.3808C70.3606 40.5071 71.4394 40.0703 72.7273 40.0703C74.0152 40.0703 75.0939 40.5071 75.9636 41.3808C76.8364 42.2576 77.2727 43.3428 77.2727 44.6367V50.3447L68.1818 54.9111ZM81.8182 104C76.5909 102.706 72.2545 99.6802 68.8091 94.922C65.3606 90.1668 63.6364 84.8972 63.6364 79.1131V70.3227C63.6364 69.4855 63.8455 68.6864 64.2636 67.9254C64.6788 67.1643 65.303 66.5935 66.1364 66.213L79.7727 59.3633C80.3788 58.9828 81.0606 58.7925 81.8182 58.7925C82.5758 58.7925 83.2576 58.9828 83.8636 59.3633L97.5 66.213C98.3333 66.5935 98.9591 67.1643 99.3773 67.9254C99.7924 68.6864 100 69.4855 100 70.3227V79.1131C100 84.8972 98.2773 90.1668 94.8318 94.922C91.3833 99.6802 87.0455 102.706 81.8182 104ZM91.9318 76.944C92.6136 76.2591 92.9545 75.4599 92.9545 74.5466C92.9545 73.6334 92.6136 72.8342 91.9318 72.1493C91.25 71.4643 90.4545 71.1401 89.5455 71.1766C88.6364 71.2162 87.8409 71.5404 87.1591 72.1493L78.5227 80.5971L76.4773 78.5423C75.7955 77.8573 75 77.5331 74.0909 77.5696C73.1818 77.6092 72.3864 77.9715 71.7045 78.6564C71.0227 79.3414 70.6818 80.1405 70.6818 81.0538C70.6818 81.9671 71.0227 82.7662 71.7045 83.4512L75.3409 87.1043C75.7955 87.5609 76.2879 87.9034 76.8182 88.1317C77.3485 88.36 77.9167 88.4742 78.5227 88.4742C79.1288 88.4742 79.697 88.36 80.2273 88.1317C80.7576 87.9034 81.25 87.5609 81.7045 87.1043L91.9318 76.944Z" fill="#1B046C"/>
</svg>
