<svg width="96" height="92" viewBox="0 0 96 92" fill="none" xmlns="http://www.w3.org/2000/svg">
<path d="M74.2368 66.8211V55.6842C74.2368 55.0386 73.995 54.4737 73.5113 53.9895C73.0277 53.5053 72.4635 53.2632 71.8186 53.2632C71.1738 53.2632 70.6096 53.5053 70.1259 53.9895C69.6423 54.4737 69.4005 55.0386 69.4005 55.6842V66.7C69.4005 67.3456 69.5214 67.9711 69.7632 68.5763C70.005 69.1816 70.3678 69.7263 70.8514 70.2105L78.1058 77.4737C78.5894 77.9579 79.1537 78.2 79.7985 78.2C80.4433 78.2 81.0076 77.9579 81.4912 77.4737C81.9748 76.9895 82.2166 76.4246 82.2166 75.7789C82.2166 75.1333 81.9748 74.5684 81.4912 74.0842L74.2368 66.8211ZM45.2191 46.8474V29.0526H57.3098L52.4736 24.2105H45.2191V4.84211C45.2191 3.47018 45.6826 2.32018 46.6096 1.39211C47.5365 0.464035 48.6851 0 50.0554 0H61.7834C62.67 0 63.4962 0.22193 64.262 0.665789C65.0277 1.10965 65.6121 1.73509 66.0151 2.54211L75.4458 19.3684H68.4332L63.597 9.68421H52.4736V14.5263H60.6952L65.5315 24.2105H78.1058L85.2393 36.6789C83.1436 35.7912 80.9673 35.1053 78.7103 34.6211C76.4534 34.1368 74.1562 33.8947 71.8186 33.8947C66.4181 33.8947 61.4005 35.0649 56.7657 37.4053C52.131 39.7456 48.2821 42.893 45.2191 46.8474ZM35.5466 77.4737H23.8186C22.932 77.4737 22.1058 77.2518 21.3401 76.8079C20.5743 76.364 19.9899 75.7386 19.5869 74.9316L10.1562 58.1053H17.1688L22.005 67.7895H33.1285V62.9474H24.9068L20.0705 53.2632H7.49622L0.604534 41.1579C0.443325 40.7544 0.302267 40.3509 0.18136 39.9474C0.0604534 39.5439 0 39.1404 0 38.7368C0 38.414 0.201511 37.607 0.604534 36.3158L7.49622 24.2105H20.0705L24.9068 14.5263H33.1285V9.68421H22.005L17.1688 19.3684H10.1562L19.5869 2.54211C19.9899 1.73509 20.5743 1.10965 21.3401 0.665789C22.1058 0.22193 22.932 0 23.8186 0H35.5466C36.9169 0 38.0655 0.464035 38.9924 1.39211C39.9194 2.32018 40.3829 3.47018 40.3829 4.84211V24.2105H33.1285L28.2922 29.0526H40.3829V43.5789H29.7431L24.9068 33.8947H13.7834L8.9471 38.7368H22.005L26.8413 48.4211H40.3829V55.2C39.5768 57.1368 38.9723 59.1544 38.5693 61.2526C38.1662 63.3509 37.9647 65.5298 37.9647 67.7895C37.9647 69.1614 38.0252 70.5333 38.1461 71.9053C38.267 73.2772 38.529 74.6491 38.932 76.0211C38.529 76.4246 38.0252 76.7675 37.4207 77.05C36.8161 77.3325 36.1914 77.4737 35.5466 77.4737ZM71.8186 92C65.1285 92 59.4257 89.6395 54.7103 84.9184C49.995 80.1974 47.6373 74.4877 47.6373 67.7895C47.6373 61.0912 49.995 55.3816 54.7103 50.6605C59.4257 45.9395 65.1285 43.5789 71.8186 43.5789C78.5088 43.5789 84.2116 45.9395 88.927 50.6605C93.6423 55.3816 96 61.0912 96 67.7895C96 74.4877 93.6423 80.1974 88.927 84.9184C84.2116 89.6395 78.5088 92 71.8186 92Z" fill="#1B046C"/>
</svg>
