<svg width="30" height="28" viewBox="0 0 30 28" fill="none" xmlns="http://www.w3.org/2000/svg">
<path d="M25.1733 21.96C25.76 21.0267 26.1067 19.9467 26.1067 18.7733C26.1067 15.4533 23.4267 12.7733 20.1067 12.7733C16.7867 12.7733 14.1067 15.4533 14.1067 18.7733C14.1067 22.0933 16.7867 24.7733 20.0933 24.7733C21.2667 24.7733 22.36 24.4267 23.28 23.84L27.44 28L29.3333 26.1067L25.1733 21.96ZM20.1067 22.1067C18.2667 22.1067 16.7733 20.6133 16.7733 18.7733C16.7733 16.9333 18.2667 15.44 20.1067 15.44C21.9467 15.44 23.44 16.9333 23.44 18.7733C23.44 20.6133 21.9467 22.1067 20.1067 22.1067ZM19.6267 10.7733C18.64 10.8 17.6933 11.0133 16.8267 11.3733L16.0933 10.2667L11.0267 18.5067L7.01333 13.8133L2.17333 21.56L0 20L6.66667 9.33333L10.6667 14L16 5.33333L19.6267 10.7733ZM23.08 11.44C22.2267 11.0667 21.3067 10.84 20.3467 10.7867L27.1733 0L29.3333 1.57333L23.08 11.44Z" fill="#00423C"/>
</svg>
