<svg width="1316" height="646" viewBox="0 0 1316 646" fill="none" xmlns="http://www.w3.org/2000/svg">
<rect width="1316" height="646" rx="66" fill="#00EAFF"/>
<path d="M514.562 226V179.455H548.108V189.636H527.199V197.636H546.381V207.818H527.199V215.818H548.017V226H514.562ZM567.92 179.455L575.557 193H575.92L583.648 179.455H597.739L583.83 202.727L598.284 226H583.83L575.92 212.182H575.557L567.648 226H553.284L567.557 202.727L553.739 179.455H567.92ZM603.188 226V179.455H623.278C626.733 179.455 629.756 180.136 632.347 181.5C634.938 182.864 636.953 184.78 638.392 187.25C639.831 189.72 640.551 192.606 640.551 195.909C640.551 199.242 639.809 202.129 638.324 204.568C636.854 207.008 634.786 208.886 632.119 210.205C629.468 211.523 626.369 212.182 622.824 212.182H610.824V202.364H620.278C621.763 202.364 623.028 202.106 624.074 201.591C625.134 201.061 625.945 200.311 626.506 199.341C627.081 198.371 627.369 197.227 627.369 195.909C627.369 194.576 627.081 193.439 626.506 192.5C625.945 191.545 625.134 190.818 624.074 190.318C623.028 189.803 621.763 189.545 620.278 189.545H615.824V226H603.188ZM645.188 226V179.455H657.824V215.818H676.642V226H645.188ZM725.028 202.727C725.028 207.909 724.021 212.28 722.006 215.841C719.991 219.386 717.271 222.076 713.847 223.909C710.422 225.727 706.604 226.636 702.392 226.636C698.15 226.636 694.316 225.72 690.892 223.886C687.483 222.038 684.771 219.341 682.756 215.795C680.756 212.235 679.756 207.879 679.756 202.727C679.756 197.545 680.756 193.182 682.756 189.636C684.771 186.076 687.483 183.386 690.892 181.568C694.316 179.735 698.15 178.818 702.392 178.818C706.604 178.818 710.422 179.735 713.847 181.568C717.271 183.386 719.991 186.076 722.006 189.636C724.021 193.182 725.028 197.545 725.028 202.727ZM712.028 202.727C712.028 199.939 711.657 197.591 710.915 195.682C710.188 193.758 709.104 192.303 707.665 191.318C706.241 190.318 704.483 189.818 702.392 189.818C700.301 189.818 698.536 190.318 697.097 191.318C695.672 192.303 694.589 193.758 693.847 195.682C693.119 197.591 692.756 199.939 692.756 202.727C692.756 205.515 693.119 207.871 693.847 209.795C694.589 211.705 695.672 213.159 697.097 214.159C698.536 215.144 700.301 215.636 702.392 215.636C704.483 215.636 706.241 215.144 707.665 214.159C709.104 213.159 710.188 211.705 710.915 209.795C711.657 207.871 712.028 205.515 712.028 202.727ZM730.875 226V179.455H750.966C754.42 179.455 757.443 180.083 760.034 181.341C762.625 182.598 764.64 184.409 766.08 186.773C767.519 189.136 768.239 191.97 768.239 195.273C768.239 198.606 767.496 201.417 766.011 203.705C764.542 205.992 762.473 207.72 759.807 208.886C757.155 210.053 754.057 210.636 750.511 210.636H738.511V200.818H747.966C749.451 200.818 750.716 200.636 751.761 200.273C752.822 199.894 753.633 199.295 754.193 198.477C754.769 197.659 755.057 196.591 755.057 195.273C755.057 193.939 754.769 192.856 754.193 192.023C753.633 191.174 752.822 190.553 751.761 190.159C750.716 189.75 749.451 189.545 747.966 189.545H743.511V226H730.875ZM758.148 204.636L769.784 226H756.057L744.693 204.636H758.148ZM773.625 226V179.455H807.17V189.636H786.261V197.636H805.443V207.818H786.261V215.818H807.08V226H773.625ZM415.278 256.455H429.369L438.46 275.364H438.824L447.915 256.455H462.006L444.915 288.364V303H432.369V288.364L415.278 256.455ZM507.966 279.727C507.966 284.909 506.958 289.28 504.943 292.841C502.928 296.386 500.208 299.076 496.784 300.909C493.36 302.727 489.542 303.636 485.33 303.636C481.087 303.636 477.254 302.72 473.83 300.886C470.42 299.038 467.708 296.341 465.693 292.795C463.693 289.235 462.693 284.879 462.693 279.727C462.693 274.545 463.693 270.182 465.693 266.636C467.708 263.076 470.42 260.386 473.83 258.568C477.254 256.735 481.087 255.818 485.33 255.818C489.542 255.818 493.36 256.735 496.784 258.568C500.208 260.386 502.928 263.076 504.943 266.636C506.958 270.182 507.966 274.545 507.966 279.727ZM494.966 279.727C494.966 276.939 494.595 274.591 493.852 272.682C493.125 270.758 492.042 269.303 490.602 268.318C489.178 267.318 487.42 266.818 485.33 266.818C483.239 266.818 481.473 267.318 480.034 268.318C478.61 269.303 477.527 270.758 476.784 272.682C476.057 274.591 475.693 276.939 475.693 279.727C475.693 282.515 476.057 284.871 476.784 286.795C477.527 288.705 478.61 290.159 480.034 291.159C481.473 292.144 483.239 292.636 485.33 292.636C487.42 292.636 489.178 292.144 490.602 291.159C492.042 290.159 493.125 288.705 493.852 286.795C494.595 284.871 494.966 282.515 494.966 279.727ZM541.358 256.455H553.994V286.273C553.994 289.818 553.146 292.886 551.449 295.477C549.767 298.053 547.419 300.045 544.403 301.455C541.388 302.848 537.888 303.545 533.903 303.545C529.888 303.545 526.373 302.848 523.358 301.455C520.343 300.045 517.994 298.053 516.312 295.477C514.646 292.886 513.812 289.818 513.812 286.273V256.455H526.449V285.182C526.449 286.621 526.767 287.909 527.403 289.045C528.04 290.167 528.919 291.045 530.04 291.682C531.176 292.318 532.464 292.636 533.903 292.636C535.358 292.636 536.646 292.318 537.767 291.682C538.888 291.045 539.767 290.167 540.403 289.045C541.04 287.909 541.358 286.621 541.358 285.182V256.455ZM560 303V256.455H580.091C583.545 256.455 586.568 257.083 589.159 258.341C591.75 259.598 593.765 261.409 595.205 263.773C596.644 266.136 597.364 268.97 597.364 272.273C597.364 275.606 596.621 278.417 595.136 280.705C593.667 282.992 591.598 284.72 588.932 285.886C586.28 287.053 583.182 287.636 579.636 287.636H567.636V277.818H577.091C578.576 277.818 579.841 277.636 580.886 277.273C581.947 276.894 582.758 276.295 583.318 275.477C583.894 274.659 584.182 273.591 584.182 272.273C584.182 270.939 583.894 269.856 583.318 269.023C582.758 268.174 581.947 267.553 580.886 267.159C579.841 266.75 578.576 266.545 577.091 266.545H572.636V303H560ZM587.273 281.636L598.909 303H585.182L573.818 281.636H587.273ZM660.591 279.727C660.591 284.909 659.583 289.28 657.568 292.841C655.553 296.386 652.833 299.076 649.409 300.909C645.985 302.727 642.167 303.636 637.955 303.636C633.712 303.636 629.879 302.72 626.455 300.886C623.045 299.038 620.333 296.341 618.318 292.795C616.318 289.235 615.318 284.879 615.318 279.727C615.318 274.545 616.318 270.182 618.318 266.636C620.333 263.076 623.045 260.386 626.455 258.568C629.879 256.735 633.712 255.818 637.955 255.818C642.167 255.818 645.985 256.735 649.409 258.568C652.833 260.386 655.553 263.076 657.568 266.636C659.583 270.182 660.591 274.545 660.591 279.727ZM647.591 279.727C647.591 276.939 647.22 274.591 646.477 272.682C645.75 270.758 644.667 269.303 643.227 268.318C641.803 267.318 640.045 266.818 637.955 266.818C635.864 266.818 634.098 267.318 632.659 268.318C631.235 269.303 630.152 270.758 629.409 272.682C628.682 274.591 628.318 276.939 628.318 279.727C628.318 282.515 628.682 284.871 629.409 286.795C630.152 288.705 631.235 290.159 632.659 291.159C634.098 292.144 635.864 292.636 637.955 292.636C640.045 292.636 641.803 292.144 643.227 291.159C644.667 290.159 645.75 288.705 646.477 286.795C647.22 284.871 647.591 282.515 647.591 279.727ZM666.438 303V256.455H686.528C689.983 256.455 693.006 257.136 695.597 258.5C698.188 259.864 700.203 261.78 701.642 264.25C703.081 266.72 703.801 269.606 703.801 272.909C703.801 276.242 703.059 279.129 701.574 281.568C700.104 284.008 698.036 285.886 695.369 287.205C692.718 288.523 689.619 289.182 686.074 289.182H674.074V279.364H683.528C685.013 279.364 686.278 279.106 687.324 278.591C688.384 278.061 689.195 277.311 689.756 276.341C690.331 275.371 690.619 274.227 690.619 272.909C690.619 271.576 690.331 270.439 689.756 269.5C689.195 268.545 688.384 267.818 687.324 267.318C686.278 266.803 685.013 266.545 683.528 266.545H679.074V303H666.438ZM707.165 266.636V256.455H747.619V266.636H733.619V303H721.165V266.636H707.165ZM765.011 256.455V303H752.375V256.455H765.011ZM816.091 279.727C816.091 284.909 815.083 289.28 813.068 292.841C811.053 296.386 808.333 299.076 804.909 300.909C801.485 302.727 797.667 303.636 793.455 303.636C789.212 303.636 785.379 302.72 781.955 300.886C778.545 299.038 775.833 296.341 773.818 292.795C771.818 289.235 770.818 284.879 770.818 279.727C770.818 274.545 771.818 270.182 773.818 266.636C775.833 263.076 778.545 260.386 781.955 258.568C785.379 256.735 789.212 255.818 793.455 255.818C797.667 255.818 801.485 256.735 804.909 258.568C808.333 260.386 811.053 263.076 813.068 266.636C815.083 270.182 816.091 274.545 816.091 279.727ZM803.091 279.727C803.091 276.939 802.72 274.591 801.977 272.682C801.25 270.758 800.167 269.303 798.727 268.318C797.303 267.318 795.545 266.818 793.455 266.818C791.364 266.818 789.598 267.318 788.159 268.318C786.735 269.303 785.652 270.758 784.909 272.682C784.182 274.591 783.818 276.939 783.818 279.727C783.818 282.515 784.182 284.871 784.909 286.795C785.652 288.705 786.735 290.159 788.159 291.159C789.598 292.144 791.364 292.636 793.455 292.636C795.545 292.636 797.303 292.144 798.727 291.159C800.167 290.159 801.25 288.705 801.977 286.795C802.72 284.871 803.091 282.515 803.091 279.727ZM862.21 256.455V303H851.665L834.847 278.545H834.574V303H821.938V256.455H832.665L849.21 280.818H849.574V256.455H862.21ZM893.278 271C893.157 269.485 892.589 268.303 891.574 267.455C890.574 266.606 889.051 266.182 887.006 266.182C885.703 266.182 884.634 266.341 883.801 266.659C882.983 266.962 882.377 267.379 881.983 267.909C881.589 268.439 881.384 269.045 881.369 269.727C881.339 270.288 881.438 270.795 881.665 271.25C881.907 271.689 882.286 272.091 882.801 272.455C883.316 272.803 883.975 273.121 884.778 273.409C885.581 273.697 886.536 273.955 887.642 274.182L891.46 275C894.036 275.545 896.241 276.265 898.074 277.159C899.907 278.053 901.407 279.106 902.574 280.318C903.741 281.515 904.597 282.864 905.142 284.364C905.703 285.864 905.991 287.5 906.006 289.273C905.991 292.333 905.225 294.924 903.71 297.045C902.195 299.167 900.028 300.78 897.21 301.886C894.407 302.992 891.036 303.545 887.097 303.545C883.051 303.545 879.521 302.947 876.506 301.75C873.506 300.553 871.172 298.712 869.506 296.227C867.854 293.727 867.021 290.53 867.006 286.636H879.006C879.081 288.061 879.438 289.258 880.074 290.227C880.71 291.197 881.604 291.932 882.756 292.432C883.922 292.932 885.309 293.182 886.915 293.182C888.263 293.182 889.392 293.015 890.301 292.682C891.21 292.348 891.9 291.886 892.369 291.295C892.839 290.705 893.081 290.03 893.097 289.273C893.081 288.561 892.847 287.939 892.392 287.409C891.953 286.864 891.225 286.379 890.21 285.955C889.195 285.515 887.824 285.106 886.097 284.727L881.46 283.727C877.339 282.833 874.089 281.341 871.71 279.25C869.347 277.144 868.172 274.273 868.188 270.636C868.172 267.682 868.96 265.098 870.551 262.886C872.157 260.659 874.377 258.924 877.21 257.682C880.059 256.439 883.324 255.818 887.006 255.818C890.763 255.818 894.013 256.447 896.756 257.705C899.498 258.962 901.612 260.735 903.097 263.023C904.597 265.295 905.354 267.955 905.369 271H893.278ZM390.153 380H376.517L391.881 333.455H409.153L424.517 380H410.881L400.699 346.273H400.335L390.153 380ZM387.608 361.636H413.244V371.091H387.608V361.636ZM469.273 333.455V380H458.727L441.909 355.545H441.636V380H429V333.455H439.727L456.273 357.818H456.636V333.455H469.273ZM493.159 380H475.25V333.455H492.977C497.765 333.455 501.902 334.386 505.386 336.25C508.886 338.098 511.583 340.765 513.477 344.25C515.386 347.72 516.341 351.879 516.341 356.727C516.341 361.576 515.394 365.742 513.5 369.227C511.606 372.697 508.924 375.364 505.455 377.227C501.985 379.076 497.886 380 493.159 380ZM487.886 369.273H492.705C495.008 369.273 496.97 368.902 498.591 368.159C500.227 367.417 501.47 366.136 502.318 364.318C503.182 362.5 503.614 359.97 503.614 356.727C503.614 353.485 503.174 350.955 502.295 349.136C501.432 347.318 500.159 346.038 498.477 345.295C496.811 344.553 494.765 344.182 492.341 344.182H487.886V369.273ZM547.574 333.455V380H534.938V333.455H547.574ZM583.79 348.818C583.593 348.015 583.282 347.311 582.858 346.705C582.434 346.083 581.903 345.561 581.267 345.136C580.646 344.697 579.919 344.371 579.085 344.159C578.267 343.932 577.366 343.818 576.381 343.818C574.259 343.818 572.449 344.326 570.949 345.341C569.464 346.356 568.328 347.818 567.54 349.727C566.767 351.636 566.381 353.939 566.381 356.636C566.381 359.364 566.752 361.697 567.494 363.636C568.237 365.576 569.343 367.061 570.812 368.091C572.282 369.121 574.108 369.636 576.29 369.636C578.214 369.636 579.813 369.356 581.085 368.795C582.373 368.235 583.335 367.439 583.972 366.409C584.608 365.379 584.926 364.167 584.926 362.773L587.108 363H576.472V354H597.108V360.455C597.108 364.697 596.206 368.326 594.403 371.341C592.616 374.341 590.146 376.644 586.994 378.25C583.858 379.841 580.259 380.636 576.199 380.636C571.669 380.636 567.691 379.674 564.267 377.75C560.843 375.826 558.169 373.083 556.244 369.523C554.335 365.962 553.381 361.727 553.381 356.818C553.381 352.97 553.964 349.561 555.131 346.591C556.313 343.621 557.949 341.114 560.04 339.068C562.131 337.008 564.547 335.455 567.29 334.409C570.032 333.348 572.972 332.818 576.108 332.818C578.866 332.818 581.426 333.212 583.79 334C586.169 334.773 588.267 335.879 590.085 337.318C591.919 338.742 593.396 340.432 594.517 342.386C595.638 344.341 596.32 346.485 596.562 348.818H583.79ZM643.273 333.455V380H632.727L615.909 355.545H615.636V380H603V333.455H613.727L630.273 357.818H630.636V333.455H643.273ZM661.886 333.455V380H649.25V333.455H661.886ZM666.602 343.636V333.455H707.057V343.636H693.057V380H680.602V343.636H666.602ZM711.812 380V333.455H745.358V343.636H724.449V351.636H743.631V361.818H724.449V369.818H745.267V380H711.812ZM762.466 333.455H776.557L785.648 352.364H786.011L795.102 333.455H809.193L792.102 365.364V380H779.557V365.364L762.466 333.455ZM855.153 356.727C855.153 361.909 854.146 366.28 852.131 369.841C850.116 373.386 847.396 376.076 843.972 377.909C840.547 379.727 836.729 380.636 832.517 380.636C828.275 380.636 824.441 379.72 821.017 377.886C817.608 376.038 814.896 373.341 812.881 369.795C810.881 366.235 809.881 361.879 809.881 356.727C809.881 351.545 810.881 347.182 812.881 343.636C814.896 340.076 817.608 337.386 821.017 335.568C824.441 333.735 828.275 332.818 832.517 332.818C836.729 332.818 840.547 333.735 843.972 335.568C847.396 337.386 850.116 340.076 852.131 343.636C854.146 347.182 855.153 351.545 855.153 356.727ZM842.153 356.727C842.153 353.939 841.782 351.591 841.04 349.682C840.312 347.758 839.229 346.303 837.79 345.318C836.366 344.318 834.608 343.818 832.517 343.818C830.426 343.818 828.661 344.318 827.222 345.318C825.797 346.303 824.714 347.758 823.972 349.682C823.244 351.591 822.881 353.939 822.881 356.727C822.881 359.515 823.244 361.871 823.972 363.795C824.714 365.705 825.797 367.159 827.222 368.159C828.661 369.144 830.426 369.636 832.517 369.636C834.608 369.636 836.366 369.144 837.79 368.159C839.229 367.159 840.312 365.705 841.04 363.795C841.782 361.871 842.153 359.515 842.153 356.727ZM888.545 333.455H901.182V363.273C901.182 366.818 900.333 369.886 898.636 372.477C896.955 375.053 894.606 377.045 891.591 378.455C888.576 379.848 885.076 380.545 881.091 380.545C877.076 380.545 873.561 379.848 870.545 378.455C867.53 377.045 865.182 375.053 863.5 372.477C861.833 369.886 861 366.818 861 363.273V333.455H873.636V362.182C873.636 363.621 873.955 364.909 874.591 366.045C875.227 367.167 876.106 368.045 877.227 368.682C878.364 369.318 879.652 369.636 881.091 369.636C882.545 369.636 883.833 369.318 884.955 368.682C886.076 368.045 886.955 367.167 887.591 366.045C888.227 364.909 888.545 363.621 888.545 362.182V333.455ZM907.188 380V333.455H927.278C930.733 333.455 933.756 334.083 936.347 335.341C938.938 336.598 940.953 338.409 942.392 340.773C943.831 343.136 944.551 345.97 944.551 349.273C944.551 352.606 943.809 355.417 942.324 357.705C940.854 359.992 938.786 361.72 936.119 362.886C933.468 364.053 930.369 364.636 926.824 364.636H914.824V354.818H924.278C925.763 354.818 927.028 354.636 928.074 354.273C929.134 353.894 929.945 353.295 930.506 352.477C931.081 351.659 931.369 350.591 931.369 349.273C931.369 347.939 931.081 346.856 930.506 346.023C929.945 345.174 929.134 344.553 928.074 344.159C927.028 343.75 925.763 343.545 924.278 343.545H919.824V380H907.188ZM934.46 358.636L946.097 380H932.369L921.006 358.636H934.46ZM535.875 457V410.455H568.602V420.636H548.511V428.636H566.602V438.818H548.511V457H535.875ZM600.795 410.455H613.432V440.273C613.432 443.818 612.583 446.886 610.886 449.477C609.205 452.053 606.856 454.045 603.841 455.455C600.826 456.848 597.326 457.545 593.341 457.545C589.326 457.545 585.811 456.848 582.795 455.455C579.78 454.045 577.432 452.053 575.75 449.477C574.083 446.886 573.25 443.818 573.25 440.273V410.455H585.886V439.182C585.886 440.621 586.205 441.909 586.841 443.045C587.477 444.167 588.356 445.045 589.477 445.682C590.614 446.318 591.902 446.636 593.341 446.636C594.795 446.636 596.083 446.318 597.205 445.682C598.326 445.045 599.205 444.167 599.841 443.045C600.477 441.909 600.795 440.621 600.795 439.182V410.455ZM618.165 420.636V410.455H658.619V420.636H644.619V457H632.165V420.636H618.165ZM690.92 410.455H703.557V440.273C703.557 443.818 702.708 446.886 701.011 449.477C699.33 452.053 696.981 454.045 693.966 455.455C690.951 456.848 687.451 457.545 683.466 457.545C679.451 457.545 675.936 456.848 672.92 455.455C669.905 454.045 667.557 452.053 665.875 449.477C664.208 446.886 663.375 443.818 663.375 440.273V410.455H676.011V439.182C676.011 440.621 676.33 441.909 676.966 443.045C677.602 444.167 678.481 445.045 679.602 445.682C680.739 446.318 682.027 446.636 683.466 446.636C684.92 446.636 686.208 446.318 687.33 445.682C688.451 445.045 689.33 444.167 689.966 443.045C690.602 441.909 690.92 440.621 690.92 439.182V410.455ZM709.562 457V410.455H729.653C733.108 410.455 736.131 411.083 738.722 412.341C741.313 413.598 743.328 415.409 744.767 417.773C746.206 420.136 746.926 422.97 746.926 426.273C746.926 429.606 746.184 432.417 744.699 434.705C743.229 436.992 741.161 438.72 738.494 439.886C735.843 441.053 732.744 441.636 729.199 441.636H717.199V431.818H726.653C728.138 431.818 729.403 431.636 730.449 431.273C731.509 430.894 732.32 430.295 732.881 429.477C733.456 428.659 733.744 427.591 733.744 426.273C733.744 424.939 733.456 423.856 732.881 423.023C732.32 422.174 731.509 421.553 730.449 421.159C729.403 420.75 728.138 420.545 726.653 420.545H722.199V457H709.562ZM736.835 435.636L748.472 457H734.744L723.381 435.636H736.835ZM752.312 457V410.455H785.858V420.636H764.949V428.636H784.131V438.818H764.949V446.818H785.767V457H752.312Z" fill="#FFE100"/>
</svg>
